<svg width="157" height="62" viewBox="0 0 157 62" fill="none" xmlns="http://www.w3.org/2000/svg">
<path d="M48.0227 41.8579H11.0779C11.0779 43.4999 11.3605 44.9938 11.8989 46.4474C13.4197 50.5928 16.5153 52.8404 20.7683 53.5807C24.2138 54.1863 27.6324 54.0652 30.9433 52.8539C33.5543 51.9117 35.4924 50.2294 36.5153 47.5914C36.5557 47.4972 36.6229 47.4165 36.7037 47.2819H47.8208C46.9594 49.0315 46.2999 50.687 45.3847 52.1944C42.4372 57.0127 37.9958 59.7314 32.5718 60.9965C28.1707 62.0194 23.7158 61.9925 19.2744 61.4676C15.6539 61.0369 12.168 60.0679 9.00519 58.1567C5.0348 55.7745 2.50452 52.3021 1.18554 47.9279C-0.106519 43.6345 -0.241108 39.2469 0.29725 34.8054C0.647182 31.9521 1.40088 29.2334 2.7737 26.6897C4.91367 22.7462 8.21111 20.189 12.343 18.6412C16.448 17.1069 20.7414 16.6897 25.0886 16.7435C29.1129 16.7973 33.0698 17.3088 36.8383 18.8162C42.1411 20.9562 45.6404 24.765 47.3094 30.2294C48.3322 33.5672 48.5341 36.9723 48.3726 40.4313C48.3591 40.7543 48.2919 41.0638 48.238 41.3734C48.2111 41.4945 48.1303 41.6156 48.0227 41.8444V41.8579ZM11.2932 34.7112H37.3228C37.2017 34.0383 37.1209 33.4326 36.9863 32.8404C36.2326 29.4488 34.4561 26.7704 31.1317 25.4918C29.5705 24.8862 27.8477 24.5497 26.1788 24.3747C23.1775 24.0517 20.2165 24.3478 17.3901 25.5187C13.6889 27.0665 11.5489 30.6062 11.2932 34.7112Z" fill="#00A1B0"/>
<path d="M157 38.4394C156.933 43.0827 156.515 46.7301 155.062 50.216C153.056 55.0074 149.544 58.1702 144.725 59.9333C139.503 61.8445 134.093 62.0329 128.615 61.6023C125.748 61.3735 122.976 60.8082 120.297 59.7584C114.779 57.578 111.28 53.5807 109.665 47.9145C108.494 43.7826 108.346 39.57 108.79 35.3169C109.099 32.2348 109.84 29.2873 111.32 26.5552C113.393 22.6924 116.623 20.1622 120.688 18.6278C124.698 17.1204 128.871 16.7032 133.11 16.7436C137.296 16.7705 141.414 17.255 145.331 18.8432C150.701 21.0101 154.187 24.8997 155.802 30.4448C156.125 31.5484 156.421 32.6521 156.569 33.7826C156.811 35.6265 156.919 37.4973 157 38.4394ZM132.854 26.6897C130.795 26.6897 128.857 26.9051 126.986 27.3896C123.581 28.2914 121.266 30.4583 120.23 33.8903C119.328 36.8647 119.274 39.8795 119.799 42.9078C120.445 46.6494 122.33 49.543 126.044 50.8486C130.243 52.329 134.55 52.3021 138.803 51.0774C142.141 50.1218 144.321 47.8741 145.291 44.4959C146.165 41.4542 146.206 38.3856 145.614 35.3169C144.873 31.4138 142.72 28.6144 138.83 27.4973C136.879 26.932 134.793 26.6897 132.854 26.6897Z" fill="white"/>
<path d="M102.518 33.8767H91.4953C91.3069 33.2576 91.1453 32.6654 90.93 32.1001C89.961 29.5295 88.0902 27.874 85.5195 27.0396C81.2126 25.6533 76.8385 25.6264 72.5182 26.9184C69.0054 27.9682 66.8789 30.4447 66.004 33.9709C65.1292 37.4972 65.1292 41.0503 66.004 44.5766C66.9731 48.4393 69.4361 50.9023 73.3122 51.831C77.3768 52.8135 81.4684 52.8 85.4791 51.481C88.6824 50.4312 90.6608 48.224 91.3741 44.9265C91.3876 44.8458 91.428 44.7785 91.4818 44.6439H102.451C102.37 45.411 102.33 46.1647 102.209 46.905C101.145 53.0692 97.646 57.2818 91.8856 59.6102C87.5518 61.3599 83.0027 61.804 78.3863 61.7771C74.2813 61.7502 70.2436 61.2791 66.3809 59.7852C60.93 57.6721 57.2961 53.8363 55.6137 48.2374C54.1063 43.2172 54.0659 38.1028 54.9542 32.9615C55.6272 29.1123 57.1346 25.6668 59.8937 22.8538C62.4643 20.2428 65.6541 18.6816 69.1938 17.8067C74.5505 16.4878 79.961 16.407 85.4118 17.1876C88.9112 17.6856 92.2355 18.6681 95.2099 20.6197C98.8842 23.0154 101.132 26.3801 101.993 30.66C102.195 31.6964 102.343 32.7327 102.518 33.8498V33.8767Z" fill="white"/>
<path d="M117.592 12.7058C118.898 11.1984 120.069 9.85252 121.24 8.50663C123.487 5.93597 125.708 3.35185 127.983 0.808108C128.279 0.485093 128.817 0.229373 129.261 0.215914C131.576 0.162078 133.905 0.162078 136.233 0.215914C136.637 0.215914 137.148 0.417798 137.404 0.700436C140.728 4.4824 144.012 8.30474 147.31 12.1136C147.431 12.2482 147.512 12.4097 147.7 12.6924C147.337 12.7193 147.094 12.7462 146.852 12.7462C144.429 12.7462 141.993 12.7731 139.571 12.7193C139.127 12.7193 138.588 12.4905 138.252 12.1809C136.664 10.687 135.116 9.12574 133.568 7.59142C133.326 7.34916 133.07 7.12035 132.774 6.83772C132.505 7.06652 132.289 7.25494 132.088 7.45683C130.472 9.04498 128.871 10.6601 127.229 12.2078C126.919 12.5039 126.408 12.7193 125.991 12.7193C123.514 12.7731 121.024 12.7462 118.548 12.7462C118.319 12.7462 118.09 12.7193 117.619 12.6924L117.592 12.7058Z" fill="white"/>
</svg>
