<?xml version="1.0" encoding="UTF-8"?><svg id="a" xmlns="http://www.w3.org/2000/svg" xmlns:xlink="http://www.w3.org/1999/xlink" viewBox="0 0 111.21 54"><defs><linearGradient id="b" x1="15.3" y1="13.79" x2="112.79" y2="83.91" gradientUnits="userSpaceOnUse"><stop offset="0" stop-color="#1d67b1"/><stop offset="0" stop-color="#1d67b1"/><stop offset=".57" stop-color="#1e3c72"/><stop offset="1" stop-color="#1e3c72"/></linearGradient><linearGradient id="c" x1="23.24" y1="2.75" x2="120.73" y2="72.87" xlink:href="#b"/><linearGradient id="d" x1="37.27" y1="-16.76" x2="134.77" y2="53.35" xlink:href="#b"/><linearGradient id="e" x1="-99.68" y1="-47.62" x2="-66.91" y2="-18.03" gradientTransform="translate(89.93 57.75) rotate(-8.54) scale(.84 .86)" gradientUnits="userSpaceOnUse"><stop offset="0" stop-color="#30401a"/><stop offset=".03" stop-color="#37441a"/><stop offset=".09" stop-color="#4c501c"/><stop offset=".15" stop-color="#6f6520"/><stop offset=".16" stop-color="#746821"/><stop offset=".22" stop-color="#726922"/><stop offset=".25" stop-color="#6e7125"/><stop offset=".26" stop-color="#677d2c"/><stop offset=".27" stop-color="#638531"/><stop offset="1" stop-color="#b6d341"/></linearGradient><linearGradient id="f" x1="-120.66" y1="-37.37" x2="-121.76" y2="-36.36" gradientTransform="translate(118.73 53.01) rotate(-8.54) scale(.78 .84)" gradientUnits="userSpaceOnUse"><stop offset="0" stop-color="#fff"/><stop offset=".21" stop-color="#fdfefc"/><stop offset=".36" stop-color="#fafcf3"/><stop offset=".49" stop-color="#f4f8e3"/><stop offset=".61" stop-color="#ecf3cd"/><stop offset=".72" stop-color="#e1edb1"/><stop offset=".82" stop-color="#d3e58e"/><stop offset=".92" stop-color="#c4db66"/><stop offset="1" stop-color="#b6d341"/></linearGradient></defs><path d="m37.16,48.85V3.07h-9.86v45.78h9.86Z" style="fill:url(#b);"/><path d="m50.17,48.98h15.49c5.59,0,8.75-2.8,9.48-8.42V13.21c0-6.76-3.29-10.14-9.86-10.14h-23.41v45.91h8.3Zm1.56-9.98V12.93h10.82c.98.13,1.67.34,2.1.64.42.3.64.76.64,1.4v20.71c0,1.4-.22,2.31-.67,2.71-.45.4-1.35.61-2.72.61h-10.16Z" style="fill:url(#c);"/><path d="m84.43,48.15c1.19.47,2.33.7,3.44.7h20.68v-9.86h-17.18c-1.15,0-1.92-.29-2.32-.86-.4-.57-.6-1.62-.6-3.15V14.96c.25-1.23,1.02-1.91,2.29-2.03h17.81V3.07h-19.21c-4.11,0-6.93.74-8.46,2.23-1.53,1.48-2.29,4.22-2.29,8.2v25.18c0,4.79,1.95,7.95,5.85,9.47h0Z" style="fill:url(#d);"/><path d="m27.99,43.36c-1.44-1.81-2.61-5.31-5.03-8.45-2.18-2.83-5.94-3.06-9.21-2.05-.07.02.07-.01,0,0,.93,1.68,2.47,4.15,4.17,6.08,2.93,3.32,6.85,6.83,9.05,8.08,2.21,1.26-6.34-2.18-10.49-7.04-1.72-2.01-3.76-4.7-4.82-6.54-1.05-1.81-2.19-4.99-3.89-6.28-.94-.71-2.08-1.12-2.8-.81-.57.25-1.43.84-2.3,1.46-.01,0,1.82.11,3.04.89,2.4,1.54,4.41,5.87,4.38,5.89-2.17,1.83-2.55,4.13-1.65,6.87,1.08,3.28,3.65,7.32,10.61,9,7.7,1.86,15.36-2.51,15.36-2.51,0,0-3.76-1.25-6.43-4.6Z" style="fill:url(#e);"/><path d="m17.48,34.23c.38-.26,1.9-.58,3.53.99,1.91,1.83,2.72,4.14,2.65,4.5-.04.23-.88-1.87-3.17-3.86-1.42-1.23-3.32-1.43-3.02-1.64Z" style="fill:url(#f);"/></svg>